# xmcd
#
# Track frame offsets: 
#        150
#        20131
#        35276
#        49563
#        60045
#        76023
#        91899
#        108396
#        122140
#        137217
#        151337
#        164406
#        177187
#        190314
#        207508
#        224508
#        237408
#        256185
#        274984
#        286592
#        298969
#        323994
#
# Disc length: 4596 seconds
#
# Revision: 0
# Processed by: cddbd v1.5.2PL0 Copyright (c) Steve Scherf et al.
# Submitted via: ExactAudioCopy v0.99pb2
#
DISCID=4011f216
DTITLE=Kathy Mattea - Ultimate Collection
DYEAR=2008
DGENRE=
TTITLE0=Goin' Gone
TTITLE1=Eighteen Wheels And A Dozen Roses
TTITLE2=Come From The Heart
TTITLE3=Burnin' Old Memories
TTITLE4=She Came From Fort Worth
TTITLE5=Walking Away A Winner
TTITLE6=Love At The Five And Dime
TTITLE7=Untold Stories
TTITLE8=Life As We Knew It
TTITLE9=You're The Power
TTITLE10=Train Of Memories
TTITLE11=Time Passes By
TTITLE12=The Battle Hymn Of Love
TTITLE13=Walk The Way The Wind Blows
TTITLE14=Where've You Been
TTITLE15=Lonesome Standard Time
TTITLE16=Standing Knee Deep In A River (Dying Of Thirst)
TTITLE17=455 Rocket
TTITLE18=He Won't Give In
TTITLE19=Street Talk
TTITLE20=Love Travels
TTITLE21=Trouble With Angels
EXTD=
EXTT0=
EXTT1=
EXTT2=
EXTT3=
EXTT4=
EXTT5=
EXTT6=
EXTT7=
EXTT8=
EXTT9=
EXTT10=
EXTT11=
EXTT12=
EXTT13=
EXTT14=
EXTT15=
EXTT16=
EXTT17=
EXTT18=
EXTT19=
EXTT20=
EXTT21=
PLAYORDER=
